<svg height="640" viewBox="-28 0 480 480" width="640" xmlns="http://www.w3.org/2000/svg"><path d="M248 8h-40v24c0 8.836-7.164 16-16 16H96c-8.836 0-16-7.164-16-16V8H40C22.328 8 8 22.328 8 40v400c0 17.672 14.328 32 32 32h208c17.672 0 32-14.328 32-32V40c0-17.672-14.328-32-32-32zm0 0" fill="#c2dff6"/><path d="M8 224v216c0 17.672 14.328 32 32 32h200C111.77 472 8 361.078 8 224zm0 0" fill="#9bc9ff"/><path d="M96 48h96c8.836 0 16-7.164 16-16V8H80v24c0 8.836 7.164 16 16 16zm0 0" fill="#6d6e71"/><path d="M384 80H176c-17.672 0-32 14.328-32 32v128c0 17.672 14.328 32 32 32h32v48l48.719-48H384c17.672 0 32-14.328 32-32V112c0-17.672-14.328-32-32-32zm0 0" fill="#ffeb99"/><path d="M72 432h144v16H72zm0 0"/><path d="M384 72h-96V40c-.027-22.082-17.918-39.973-40-40H40C17.918.027.027 17.918 0 40v400c.027 22.082 17.918 39.973 40 40h208c22.082-.027 39.973-17.918 40-40V280h96c22.082-.027 39.973-17.918 40-40V112c-.027-22.082-17.918-39.973-40-40zM200 16v16a8 8 0 0 1-8 8H96a8 8 0 0 1-8-8V16zm72 424c0 13.254-10.746 24-24 24H40c-13.254 0-24-10.746-24-24V40c0-13.254 10.746-24 24-24h32v16c0 13.254 10.746 24 24 24h96c13.254 0 24-10.746 24-24V16h32c13.254 0 24 10.746 24 24v32h-96c-22.082.027-39.973 17.918-40 40v128c.027 22.082 17.918 39.973 40 40h24v59.113L260 280h12zm136-200c0 13.254-10.746 24-24 24H253.441L216 300.887V264h-40c-13.254 0-24-10.746-24-24V112c0-13.254 10.746-24 24-24h208c13.254 0 24 10.746 24 24zm0 0"/><path d="M184 120h32v16h-32zm56 0h136v16H240zm-56 48h32v16h-32zm56 0h136v16H240zm-56 48h32v16h-32zm56 0h136v16H240zm0 0"/></svg>