<svg enable-background="new 0 0 512 512" viewBox="0 0 512 512" xmlns="http://www.w3.org/2000/svg"><circle cx="409.6" cy="302.933" fill="#fdb62f" r="59.733"/><path d="m247.467 64h17.067v162.133h-17.067z" fill="#6b962a"/><path d="m256 64h-17.067c-32.99 0-59.733-26.743-59.733-59.733h17.067c32.99 0 59.733 26.743 59.733 59.733z" fill="#88b337"/><path d="m179.2 260.267h119.467v34.133h-119.467z" fill="#ffa83d"/><path d="m196.267 294.4h119.467v34.133h-119.467z" fill="#fdb62f"/><path d="m179.2 328.533h119.467v34.133h-119.467z" fill="#ffa83d"/><path d="m196.267 362.667h119.467v34.133h-119.467z" fill="#fdb62f"/><path d="m196.267 396.8h119.467v34.133h-119.467z" fill="#ffa83d"/><path d="m213.333 430.933h119.467v34.133h-119.467z" fill="#fdb62f"/><path d="m196.267 465.067h119.467v34.133h-119.467z" fill="#ffa83d"/><path d="m153.6 89.6h17.067c47.13 0 85.333 38.204 85.333 85.333h-17.067c-47.129 0-85.333-38.203-85.333-85.333z" fill="#88b337"/><path d="m332.8 4.267h-17.067c-32.99 0-59.733 26.743-59.733 59.733h17.067c32.99 0 59.733-26.743 59.733-59.733z" fill="#6b962a"/><path d="m273.067 174.933h-17.067c0-47.13 38.204-85.333 85.333-85.333h17.067c0 47.13-38.204 85.333-85.333 85.333z" fill="#6b962a"/><path d="m25.6 328.533h119.467v34.133h-119.467z" fill="#fdb62f"/><path d="m25.6 362.667h119.467v34.133h-119.467z" fill="#ffa83d"/><path d="m42.667 396.8h119.467v34.133h-119.467z" fill="#fdb62f"/><path d="m25.6 430.933h119.467v34.133h-119.467z" fill="#ffa83d"/><path d="m42.667 465.067h119.467v34.133h-119.467z" fill="#fdb62f"/><path d="m349.867 362.667h119.467v34.133h-119.467z" fill="#fdb62f"/><path d="m366.933 396.8h119.467v34.133h-119.467z" fill="#ffa83d"/><path d="m366.933 430.933h119.467v34.133h-119.467z" fill="#fdb62f"/><path d="m366.933 465.067h119.467v34.133h-119.467z" fill="#ffa83d"/><circle cx="409.6" cy="302.933" fill="#ffa83d" r="34.133"/><path d="m409.6 337.067v-17.067c9.429 0 17.067-7.637 17.067-17.067h17.067c-.001 18.85-15.284 34.134-34.134 34.134z" fill="#fd7b2f"/><path d="m392.533 302.933h-17.067c0-18.85 15.283-34.133 34.133-34.133v17.067c-9.428 0-17.066 7.637-17.066 17.066z" fill="#fd7b2f"/><g fill="#fdb62f"><path d="m426.667 89.6c-2.901-17.51-16.623-31.232-34.133-34.133 17.51-2.901 31.232-16.623 34.133-34.133 2.901 17.51 16.623 31.232 34.133 34.133-17.51 2.901-31.232 16.623-34.133 34.133z"/><path d="m85.333 277.333c-2.901-17.51-16.623-31.232-34.133-34.133 17.51-2.901 31.232-16.623 34.133-34.133 2.901 17.51 16.623 31.232 34.133 34.133-17.51 2.901-31.231 16.623-34.133 34.133z"/><path d="m196.267 226.133h119.467v34.133h-119.467z"/><path d="m512 200.533h-25.6v-25.6h-17.067v25.6h-25.6v17.067h25.6v25.6h17.067v-25.6h25.6z"/></g><path d="m0 490.667h512v17.067h-512z" fill="#dbdbdb"/><path d="m170.667 200.533c-28.279 0-51.2-22.921-51.2-51.2v-8.533h17.067v8.533c0 18.85 15.283 34.133 34.133 34.133z" fill="#dbdbdb"/></svg>