<svg xmlns="http://www.w3.org/2000/svg" viewBox="0 0 512.001 512.001"><path fill="#C97523" d="M131.202 348.955L131.202 455.833 86.363 455.833 86.363 348.938"/><path fill="#A85613" d="M106.363 348.955L106.363 455.833 86.363 455.833 86.363 348.938"/><ellipse cx="108.782" cy="201.393" rx="108.782" ry="171.015" fill="#8CC928"/><path d="M108.782 372.411C48.698 372.411 0 295.84 0 201.396S48.698 30.381 108.782 30.381c-26.601 0-48.155 76.571-48.155 171.015s21.554 171.015 48.155 171.015z" fill="#82B20B"/><path fill="#E9EAEF" d="M468.698 263.882L468.698 481.621 183.04 481.621 183.04 263.882 326.674 124.549z"/><path fill="#9EB1B7" d="M398.802 187.006L398.802 146.786 470.217 146.786 470.217 255.017"/><path fill="#879BA0" d="M398.802 187.006L398.802 146.786 415.953 146.786 415.953 255.017"/><path d="M354.204 435.996h143.137c8.096 0 14.66 6.563 14.66 14.66v30.967H339.544v-30.967c0-8.097 6.563-14.66 14.66-14.66zm-339.544 0h166.026c8.096 0 14.66 6.563 14.66 14.66v30.967H0v-30.967c0-8.097 6.563-14.66 14.66-14.66z" fill="#85C10D"/><path fill="#D2D4D8" d="M468.698 272.43L468.698 313.129 325.869 176.757 183.04 313.129 183.04 272.43 314.525 147.203 325.869 136.666 337.204 147.203z"/><path fill="#EA4756" d="M325.865 154.108L163.246 309.368 140.507 290.279 314.527 124.549 325.865 114.017 337.205 124.549 511.225 290.279 488.486 309.368z"/><path fill="#C97523" d="M217.982 318.486H312.186V481.618H217.982z"/><path d="M318.971 481.621h-13.556V325.262h-80.65v156.359h-13.556V318.484a6.777 6.777 0 0 1 6.778-6.778h94.207a6.777 6.777 0 0 1 6.778 6.778v163.137z" fill="#8E480E"/><path fill="#A0D9F2" d="M339.549 318.486H446.83V412.69H339.549z"/><path fill="#C97523" d="M339.549 318.486H446.83V347.11199999999997H339.549z"/><path d="M446.822 419.47H339.544a6.777 6.777 0 0 1-6.778-6.778v-94.206a6.777 6.777 0 0 1 6.778-6.778h107.279a6.777 6.777 0 0 1 6.778 6.778v94.206a6.78 6.78 0 0 1-6.779 6.778zm-100.5-13.556h93.723v-80.65h-93.723v80.65zm-55.299.394h-13.674c-3.744 0-6.778-3.034-6.778-6.778s3.034-6.778 6.778-6.778h13.674a6.778 6.778 0 1 1 0 13.556z" fill="#8E480E"/><circle cx="325.868" cy="245.69" r="26.205" fill="#413740"/><path fill="#8E480E" d="M339.549 340.332H446.83V353.888H339.549z"/><path d="M325.869 278.679c-18.189 0-32.987-14.798-32.987-32.987s14.797-32.987 32.987-32.987 32.988 14.798 32.988 32.987c-.001 18.189-14.799 32.987-32.988 32.987zm0-52.418c-10.713 0-19.431 8.717-19.431 19.431s8.717 19.431 19.431 19.431 19.432-8.717 19.432-19.431-8.718-19.431-19.432-19.431z" fill="#EA4756"/><g><path d="M46.925 449.03a7.82 7.82 0 0 1-7.821-7.821v-19.787a7.82 7.82 0 1 1 15.642 0v19.787a7.82 7.82 0 0 1-7.821 7.821zm-25.122 0a7.82 7.82 0 0 1-7.821-7.821v-19.787a7.82 7.82 0 1 1 15.642 0v19.787a7.82 7.82 0 0 1-7.821 7.821zm135.317 0a7.82 7.82 0 0 1-7.821-7.821v-19.787a7.82 7.82 0 1 1 15.642 0v19.787a7.82 7.82 0 0 1-7.821 7.821z" fill="#85C10D"/></g></svg>