<svg id="Layer_1" height="512" viewBox="0 0 512 512" width="512" xmlns="http://www.w3.org/2000/svg" data-name="Layer 1"><path d="m442.23 200.86 53.77 81.99h-107.54z" fill="#e48e66"/><path d="m361 256.96v.14s-.73-2.77-2.04-6.16-3.21-7.4-5.54-9.88a26.446 26.446 0 0 0 -18.67-7.59 25.9 25.9 0 0 0 -26.25 26.25 26.982 26.982 0 0 0 -7.58-18.66 26.446 26.446 0 0 0 -18.67-7.59 25.9 25.9 0 0 0 -26.25 26.02 27.034 27.034 0 0 0 -7.58-18.44 26.479 26.479 0 0 0 -18.67-7.58 25.888 25.888 0 0 0 -26.25 26.25 27.025 27.025 0 0 0 -7.58-18.67 26.479 26.479 0 0 0 -18.67-7.58 27.025 27.025 0 0 0 -18.67 7.58c-4.66 4.96-7.58 16.05-7.58 16.05v-.07a104.917 104.917 0 0 1 104.86-104.93h.14a104.932 104.932 0 0 1 105 104.86z" fill="#f8ec7d"/><path d="m123.54 229.15-53.77 81.99-53.77-81.99z" fill="#e48e66"/><g fill="#63316d"><path d="m447.248 197.569a6 6 0 0 0 -10.035 0l-53.771 81.991a6 6 0 0 0 5.018 9.29h45.873a188.818 188.818 0 0 1 -64.317 117.636c-33.184 28.454-74.869 44.774-114.366 44.774-25.759 0-52.693-6.946-77.889-20.085a193.655 193.655 0 0 1 -66.351-56.911 6 6 0 0 0 -9.68 7.091 205.714 205.714 0 0 0 70.482 60.459c26.9 14.031 55.755 21.446 83.438 21.446 42.32 0 86.851-17.373 122.177-47.664a200.785 200.785 0 0 0 68.607-126.746h49.566a6 6 0 0 0 5.018-9.29zm-47.678 79.281 42.66-65.05 42.66 65.049z"/><path d="m128.819 226.3a6 6 0 0 0 -5.279-3.149h-45.873a188.816 188.816 0 0 1 64.317-117.636c33.184-28.455 74.869-44.775 114.366-44.775 25.759 0 52.693 6.946 77.889 20.085a193.655 193.655 0 0 1 66.351 56.911 6 6 0 0 0 9.68-7.092 205.714 205.714 0 0 0 -70.482-60.459c-26.9-14.029-55.755-21.445-83.438-21.445-42.32 0-86.851 17.373-122.177 47.664a200.782 200.782 0 0 0 -68.607 126.746h-49.566a6 6 0 0 0 -5.018 9.29l53.77 81.99a6 6 0 0 0 10.035 0l53.771-81.99a6 6 0 0 0 .261-6.14zm-59.049 73.9-42.66-65.05h85.32z"/><path d="m210.41 321.7a6 6 0 0 0 -6 6v9.41a28.8 28.8 0 0 0 57.59 0v-77.57a19.912 19.912 0 0 1 20.276-20.07h.091a20.326 20.326 0 0 1 14.264 5.787 21.049 21.049 0 0 1 5.869 14.463 6 6 0 0 0 12 0 19.915 19.915 0 0 1 20.276-20.25 20.164 20.164 0 0 1 14.343 5.777c.81.888 2.378 3.05 4.244 7.855 1.161 3.006 1.83 5.508 1.835 5.528a6 6 0 0 0 11.802-1.53v-.144a110.931 110.931 0 0 0 -110.921-110.856h-.222a111.074 111.074 0 0 0 -110.857 111 6 6 0 0 0 11.8 1.527c.814-3.094 3.343-10.351 6.034-13.343a21.1 21.1 0 0 1 14.439-5.814h.091a20.355 20.355 0 0 1 14.263 5.777 21.1 21.1 0 0 1 5.87 14.473 6 6 0 0 0 12 0 19.9 19.9 0 0 1 20.276-20.25h.091a20.36 20.36 0 0 1 14.263 5.776 21.127 21.127 0 0 1 5.873 14.294v77.57a16.8 16.8 0 1 1 -33.59 0v-9.41a6 6 0 0 0 -6-6zm19.49-94.23a32.947 32.947 0 0 0 -22.923 9.207c-.091.085-.179.174-.265.264a36.215 36.215 0 0 0 -3.207 3.926 36.215 36.215 0 0 0 -3.207-3.926c-.056-.058-.111-.116-.169-.172a32.709 32.709 0 0 0 -40-4.438 99.111 99.111 0 0 1 95.731-74.231h.214a99.049 99.049 0 0 1 95.826 74.177 32.376 32.376 0 0 0 -17.146-4.807 32.777 32.777 0 0 0 -22.783 9.221c-.088.083-.173.168-.255.256a35.948 35.948 0 0 0 -3.212 3.925 35.948 35.948 0 0 0 -3.212-3.925c-.052-.055-.105-.11-.16-.164a32.232 32.232 0 0 0 -22.732-9.313h-.145a32.777 32.777 0 0 0 -22.783 9.221c-.088.083-.174.169-.257.257a36.109 36.109 0 0 0 -3.215 3.924 36.063 36.063 0 0 0 -3.208-3.929c-.056-.059-.112-.117-.17-.174a32.263 32.263 0 0 0 -22.722-9.299z"/></g></svg>