<svg id="Layer_1" enable-background="new 0 0 256 256" height="512" viewBox="0 0 256 256" width="512" xmlns="http://www.w3.org/2000/svg"><path d="m157.363 176.745h-24.438-24.439l-15.561 59.378h40 40z" fill="#a4c9ff"/><path d="m172.925 238.123h-80c-.62 0-1.205-.288-1.583-.778-.379-.491-.509-1.129-.352-1.729l15.561-59.378c.23-.88 1.025-1.493 1.935-1.493h48.878c.909 0 1.704.613 1.935 1.493l15.562 59.378c.157.6.027 1.238-.352 1.729-.379.49-.964.778-1.584.778zm-77.408-4h74.816l-14.513-55.378h-45.792z" fill="#3762cc"/><path d="m177.333 202.375h-87.923v-37.507h87.923c3.314 0 6 2.686 6 6v25.507c0 3.314-2.686 6-6 6z" fill="#4671c6"/><path d="m177.333 204.375h-87.923c-1.104 0-2-.896-2-2v-37.507c0-1.104.896-2 2-2h87.923c4.411 0 8 3.589 8 8v25.507c0 4.412-3.589 8-8 8zm-85.923-4h85.923c2.206 0 4-1.794 4-4v-25.507c0-2.206-1.794-4-4-4h-85.923z" fill="#3762cc"/><path d="m177.395 248h-142.897c-3.28 0-5.938-2.659-5.938-5.938 0-3.28 2.659-5.938 5.938-5.938h142.897c3.28 0 5.938 2.659 5.938 5.938 0 3.279-2.659 5.938-5.938 5.938z" fill="#4671c6"/><path d="m128.476 153.396c-2.667 4.619-6.155 8.458-10.162 11.472h40.746c15.971-33.145 3.919-73.5-28.463-92.196l-.05.085-16.173 28.013c18.427 10.639 24.74 34.2 14.102 52.626z" fill="#e0ebfc"/><path d="m89.41 202.375h-9.411c-2.209 0-4-1.791-4-4v-21.63h13.411z" fill="#a4c9ff"/><path d="m89.41 176.745h-75.472c-3.28 0-5.938-2.659-5.938-5.938 0-3.28 2.659-5.938 5.938-5.938h75.472z" fill="#e0ebfc"/><path d="m127.507 29.196-19.756-11.406 4.725-8.183c.787-1.364 2.531-1.831 3.895-1.044l14.817 8.555c1.364.787 1.831 2.531 1.044 3.895z" fill="#a4c9ff"/><path d="m79.096 118.75-24.695-14.258c-1.818-1.05-2.442-3.375-1.392-5.194l47.078-81.542c1.05-1.818 3.375-2.442 5.194-1.392l24.695 14.258c1.818 1.05 2.442 3.375 1.392 5.194l-47.078 81.542c-1.05 1.818-3.376 2.441-5.194 1.392z" fill="#4671c6"/><path d="m71.585 114.413-9.672-5.584-3.293-1.901-5.727 12.348c-.565 1.219-.107 2.667 1.057 3.339l.003.002 9.672 5.584.003.002c1.163.672 2.647.344 3.42-.755l7.83-11.134z" fill="#a4c9ff"/><path d="m127.505 31.197c-.339 0-.683-.086-.998-.269l-19.756-11.406c-.459-.265-.795-.702-.932-1.214-.138-.512-.065-1.058.199-1.518l4.725-8.183c1.337-2.316 4.312-3.113 6.627-1.776l14.817 8.555c2.316 1.337 3.113 4.31 1.776 6.627l-4.725 8.184c-.37.641-1.042 1-1.733 1zm-17.022-14.139 16.291 9.406 3.725-6.451c.235-.407.095-.929-.312-1.164l-14.816-8.555c-.406-.234-.929-.095-1.163.312z" fill="#3762cc"/><path d="m80.986 121.257c-.983 0-1.979-.25-2.891-.776l-24.695-14.257c-1.342-.775-2.302-2.026-2.703-3.523s-.195-3.06.579-4.402l47.079-81.542c.775-1.342 2.026-2.302 3.523-2.704 1.498-.4 3.061-.195 4.402.58l24.695 14.258c1.342.775 2.302 2.026 2.703 3.523s.195 3.061-.579 4.403l-47.078 81.542c-1.073 1.858-3.028 2.898-5.035 2.898zm-.89-4.239c.861.497 1.966.201 2.463-.66l47.077-81.542c.241-.417.305-.902.181-1.368-.125-.465-.423-.854-.84-1.094l-24.695-14.258c-.418-.241-.904-.303-1.367-.18-.465.125-.854.423-1.094.84l-47.079 81.542c-.497.86-.201 1.964.659 2.461z" fill="#3762cc"/><path d="m64.935 130.558c-.784 0-1.579-.202-2.308-.624-.009-.005-.018-.01-.025-.015l-9.649-5.571c-.011-.006-.021-.012-.031-.019-2.054-1.204-2.847-3.732-1.843-5.896l5.727-12.348c.236-.509.676-.896 1.211-1.065s1.116-.106 1.604.175l12.966 7.485 3.292 1.901c.486.281.832.753.953 1.301s.006 1.122-.317 1.581l-7.83 11.134c-.896 1.273-2.305 1.961-3.75 1.961zm-.295-4.08c.268.147.596.07.771-.18l6.572-9.346-12.47-7.199-4.807 10.364c-.131.282-.026.61.241.765.009.005.018.01.026.016l9.649 5.571c.007.003.012.006.018.009z" fill="#3762cc"/><path d="m114.375 100.771-17.144-9.898c-7.735-4.466-10.386-14.357-5.92-22.093 4.466-7.735 14.357-10.386 22.093-5.92l17.144 9.898z" fill="#f9a7a7"/><circle cx="106.886" cy="77.772" fill="#f9cfcf" r="8.569"/><path d="m114.375 102.771c-.348 0-.693-.091-1-.268l-17.145-9.899c-8.678-5.01-11.662-16.147-6.652-24.825 5.011-8.676 16.145-11.663 24.825-6.652l17.145 9.898c.957.552 1.284 1.775.732 2.732l-16.173 28.013c-.266.459-.702.794-1.215.932-.169.047-.344.069-.517.069zm-9.033-40.075c-4.903 0-9.677 2.542-12.299 7.083-3.907 6.768-1.58 15.453 5.188 19.361l15.412 8.898 14.173-24.549-15.412-8.898c-2.226-1.284-4.661-1.895-7.062-1.895z" fill="#3762cc"/><path d="m106.883 88.342c-.902 0-1.819-.117-2.732-.361-2.728-.73-5.006-2.479-6.418-4.924-1.411-2.445-1.786-5.293-1.055-8.021.73-2.727 2.479-5.005 4.924-6.417s5.295-1.787 8.02-1.056c5.629 1.508 8.981 7.314 7.474 12.944-1.265 4.717-5.546 7.835-10.213 7.835zm-.008-17.142c-1.139 0-2.262.298-3.273.883-1.52.877-2.606 2.294-3.061 3.989-.454 1.695-.222 3.465.656 4.985.877 1.52 2.294 2.606 3.988 3.061 3.505.937 7.109-1.147 8.046-4.646.454-1.695.221-3.465-.656-4.985-.878-1.52-2.294-2.606-3.989-3.061-.566-.151-1.141-.226-1.711-.226z" fill="#3762cc"/><path d="m159.061 166.868h-40.746c-.86 0-1.624-.55-1.896-1.366-.273-.816.007-1.715.694-2.232 3.935-2.96 7.176-6.619 9.632-10.874 10.069-17.441 4.072-39.824-13.369-49.894-.957-.552-1.284-1.775-.732-2.732l16.173-28.012c.002-.002.053-.09.055-.093.554-.951 1.771-1.276 2.728-.725 32.877 18.981 45.731 60.621 29.265 94.795-.336.693-1.036 1.133-1.804 1.133zm-35.378-4h34.109c14.466-31.478 2.971-69.277-26.477-87.438l-14.232 24.65c18.025 11.617 23.962 35.545 13.126 54.316-1.805 3.125-3.989 5.96-6.526 8.472zm4.794-9.472h.01z" fill="#3762cc"/><circle cx="195.5" cy="93.463" fill="#6bdddd" r="52.5"/><circle cx="195.5" cy="93.463" fill="#ffea92" r="39"/><path d="m195.5 147.963c-30.052 0-54.5-24.449-54.5-54.5s24.448-54.5 54.5-54.5 54.5 24.449 54.5 54.5-24.448 54.5-54.5 54.5zm0-105c-27.846 0-50.5 22.654-50.5 50.5s22.654 50.5 50.5 50.5 50.5-22.654 50.5-50.5-22.654-50.5-50.5-50.5z" fill="#3762cc"/><path d="m191.132 119.822c-3.71 0-7.277-1.752-9.543-4.687l-16.572-21.454c-1.204-1.558-1.729-3.491-1.478-5.443.25-1.952 1.246-3.69 2.804-4.894 1.303-1.006 2.859-1.538 4.5-1.538 2.304 0 4.432 1.045 5.837 2.865l14.324 18.543 36.604-53.165c1.375-1.998 3.647-3.19 6.079-3.19 1.493 0 2.934.449 4.168 1.299 3.348 2.305 4.196 6.902 1.892 10.25l-38.69 56.196c-2.175 3.16-5.764 5.108-9.599 5.213z" fill="#f9a7a7"/><circle cx="132.925" cy="183.622" fill="#f9a7a7" r="28.83"/><circle cx="132.925" cy="183.622" fill="#f9cfcf" r="17.298"/><g fill="#3762cc"><path d="m132.925 214.452c-17 0-30.83-13.83-30.83-30.83s13.83-30.831 30.83-30.831 30.83 13.831 30.83 30.831-13.83 30.83-30.83 30.83zm0-57.66c-14.794 0-26.83 12.036-26.83 26.831 0 14.794 12.036 26.83 26.83 26.83s26.83-12.036 26.83-26.83c0-14.795-12.036-26.831-26.83-26.831z"/><path d="m132.925 202.92c-10.642 0-19.299-8.657-19.299-19.298s8.657-19.298 19.299-19.298c10.641 0 19.298 8.657 19.298 19.298s-8.658 19.298-19.298 19.298zm0-34.596c-8.436 0-15.299 6.863-15.299 15.298s6.863 15.298 15.299 15.298 15.298-6.863 15.298-15.298-6.863-15.298-15.298-15.298z"/><path d="m177.395 250h-142.897c-4.377 0-7.938-3.561-7.938-7.938s3.562-7.938 7.938-7.938h142.896c4.377 0 7.938 3.561 7.938 7.938s-3.561 7.938-7.937 7.938zm-142.897-11.877c-2.172 0-3.938 1.767-3.938 3.938s1.766 3.939 3.938 3.939h142.896c2.172 0 3.938-1.767 3.938-3.938s-1.767-3.938-3.938-3.938h-142.896z"/><path d="m89.409 204.375h-9.41c-3.309 0-6-2.691-6-6v-21.63c0-1.104.896-2 2-2h13.41c1.104 0 2 .896 2 2v25.63c0 1.105-.895 2-2 2zm-11.41-25.629v19.63c0 1.103.897 2 2 2h7.41v-21.63z"/><path d="m89.41 178.745h-75.472c-4.377 0-7.938-3.561-7.938-7.938s3.562-7.938 7.938-7.938h75.472c.53 0 1.039.211 1.414.586s.586.884.586 1.414v11.877c0 1.104-.895 1.999-2 1.999zm-2-11.877h-73.472c-2.172 0-3.938 1.767-3.938 3.938 0 2.172 1.767 3.938 3.938 3.938h73.472z"/></g></svg>