<svg height="512" viewBox="0 0 256 256" width="512" xmlns="http://www.w3.org/2000/svg"><path d="M157.363 176.745H108.486l-15.561 59.378h80z" fill="#a4c9ff"/><path d="M172.925 238.123h-80a2 2 0 0 1-1.935-2.507l15.561-59.378a1.999 1.999 0 0 1 1.935-1.493h48.878a2 2 0 0 1 1.935 1.493l15.562 59.378a2 2 0 0 1-1.936 2.507zm-77.408-4h74.816l-14.513-55.378h-45.792z" fill="#3762cc"/><path d="M177.333 202.375H89.41v-37.507h87.923a6 6 0 0 1 6 6v25.507a6 6 0 0 1-6 6z" fill="#4671c6"/><path d="M177.333 204.375H89.41a2 2 0 0 1-2-2v-37.507a2 2 0 0 1 2-2h87.923c4.411 0 8 3.589 8 8v25.507c0 4.412-3.589 8-8 8zm-85.923-4h85.923c2.206 0 4-1.794 4-4v-25.507c0-2.206-1.794-4-4-4H91.41z" fill="#3762cc"/><path d="M177.395 248H34.498a5.938 5.938 0 1 1 0-11.876h142.897a5.938 5.938 0 1 1 0 11.876z" fill="#4671c6"/><path d="M128.476 153.396a38.25 38.25 0 0 1-10.162 11.472h40.746c15.971-33.145 3.919-73.5-28.463-92.196l-.05.085-16.173 28.013c18.427 10.639 24.74 34.2 14.102 52.626z" fill="#e0ebfc"/><path d="M89.41 202.375h-9.411a4 4 0 0 1-4-4v-21.63H89.41z" fill="#a4c9ff"/><path d="M89.41 176.745H13.938a5.938 5.938 0 1 1 0-11.876H89.41z" fill="#e0ebfc"/><path d="M127.507 29.196L107.751 17.79l4.725-8.183a2.851 2.851 0 0 1 3.895-1.044l14.817 8.555a2.851 2.851 0 0 1 1.044 3.895z" fill="#a4c9ff"/><path d="M79.096 118.75l-24.695-14.258a3.803 3.803 0 0 1-1.392-5.194l47.078-81.542a3.803 3.803 0 0 1 5.194-1.392l24.695 14.258a3.803 3.803 0 0 1 1.392 5.194L84.29 117.358a3.804 3.804 0 0 1-5.194 1.392z" fill="#4671c6"/><path d="M71.585 114.413l-9.672-5.584-3.293-1.901-5.727 12.348a2.595 2.595 0 0 0 1.057 3.339l.003.002 9.672 5.584.003.002a2.595 2.595 0 0 0 3.42-.755l7.83-11.134z" fill="#a4c9ff"/><path d="M127.505 31.197a1.98 1.98 0 0 1-.998-.269l-19.756-11.406a2 2 0 0 1-.733-2.732l4.725-8.183a4.858 4.858 0 0 1 6.627-1.776l14.817 8.555a4.858 4.858 0 0 1 1.776 6.627l-4.725 8.184c-.37.641-1.042 1-1.733 1zm-17.022-14.139l16.291 9.406 3.725-6.451a.853.853 0 0 0-.312-1.164l-14.816-8.555a.853.853 0 0 0-1.163.312z" fill="#3762cc"/><path d="M80.986 121.257a5.77 5.77 0 0 1-2.891-.776L53.4 106.224c-1.342-.775-2.302-2.026-2.703-3.523s-.195-3.06.579-4.402l47.079-81.542a5.769 5.769 0 0 1 3.523-2.704 5.766 5.766 0 0 1 4.402.58l24.695 14.258c1.342.775 2.302 2.026 2.703 3.523s.195 3.061-.579 4.403l-47.078 81.542a5.807 5.807 0 0 1-5.035 2.898zm-.89-4.239a1.805 1.805 0 0 0 2.463-.66l47.077-81.542c.241-.417.305-.902.181-1.368a1.79 1.79 0 0 0-.84-1.094l-24.695-14.258a1.797 1.797 0 0 0-1.367-.18 1.79 1.79 0 0 0-1.094.84l-47.079 81.542a1.804 1.804 0 0 0 .659 2.461z" fill="#3762cc"/><path d="M64.935 130.558a4.596 4.596 0 0 1-2.308-.624l-.025-.015-9.649-5.571a4.57 4.57 0 0 1-1.874-5.915l5.727-12.348a2 2 0 0 1 2.815-.89l12.966 7.485 3.292 1.901a2.002 2.002 0 0 1 .636 2.882l-7.83 11.134a4.576 4.576 0 0 1-3.75 1.961zm-.295-4.08c.268.147.596.07.771-.18l6.572-9.346-12.47-7.199-4.807 10.364a.592.592 0 0 0 .267.781l9.649 5.571.018.009z" fill="#3762cc"/><path d="M114.375 100.771l-17.144-9.898c-7.735-4.466-10.386-14.357-5.92-22.093 4.466-7.735 14.357-10.386 22.093-5.92l17.144 9.898z" fill="#f9a7a7"/><circle cx="106.886" cy="77.772" fill="#f9cfcf" r="8.569"/><path d="M114.375 102.771c-.348 0-.693-.091-1-.268L96.23 92.604c-8.678-5.01-11.662-16.147-6.652-24.825 5.011-8.676 16.145-11.663 24.825-6.652l17.145 9.898a2 2 0 0 1 .732 2.732l-16.173 28.013a2.006 2.006 0 0 1-1.732 1.001zm-9.033-40.075c-4.903 0-9.677 2.542-12.299 7.083-3.907 6.768-1.58 15.453 5.188 19.361l15.412 8.898 14.173-24.549-15.412-8.898a14.1 14.1 0 0 0-7.062-1.895z" fill="#3762cc"/><path d="M106.883 88.342c-.902 0-1.819-.117-2.732-.361a10.495 10.495 0 0 1-6.418-4.924 10.502 10.502 0 0 1-1.055-8.021c.73-2.727 2.479-5.005 4.924-6.417s5.295-1.787 8.02-1.056c5.629 1.508 8.981 7.314 7.474 12.944-1.265 4.717-5.546 7.835-10.213 7.835zm-.008-17.142a6.516 6.516 0 0 0-3.273.883 6.527 6.527 0 0 0-3.061 3.989 6.524 6.524 0 0 0 .656 4.985 6.528 6.528 0 0 0 3.988 3.061 6.575 6.575 0 0 0 8.046-4.646 6.529 6.529 0 0 0-.656-4.985 6.53 6.53 0 0 0-3.989-3.061 6.637 6.637 0 0 0-1.711-.226zm52.186 95.668h-40.746a1.998 1.998 0 0 1-1.202-3.598 36.15 36.15 0 0 0 9.632-10.874c10.069-17.441 4.072-39.824-13.369-49.894a2 2 0 0 1-.732-2.732l16.173-28.012.055-.093a2 2 0 0 1 2.728-.725c32.877 18.981 45.731 60.621 29.265 94.795a2.006 2.006 0 0 1-1.804 1.133zm-35.378-4h34.109c14.466-31.478 2.971-69.277-26.477-87.438l-14.232 24.65c18.025 11.617 23.962 35.545 13.126 54.316a40.139 40.139 0 0 1-6.526 8.472zm4.794-9.472h.01z" fill="#3762cc"/><circle cx="195.5" cy="93.463" fill="#6bdddd" r="52.5"/><circle cx="195.5" cy="93.463" fill="#ffea92" r="39"/><path d="M195.5 147.963c-30.052 0-54.5-24.449-54.5-54.5s24.448-54.5 54.5-54.5 54.5 24.449 54.5 54.5-24.448 54.5-54.5 54.5zm0-105c-27.846 0-50.5 22.654-50.5 50.5s22.654 50.5 50.5 50.5 50.5-22.654 50.5-50.5-22.654-50.5-50.5-50.5z" fill="#3762cc"/><path d="M191.132 119.822c-3.71 0-7.277-1.752-9.543-4.687l-16.572-21.454a7.317 7.317 0 0 1-1.478-5.443 7.32 7.32 0 0 1 2.804-4.894 7.302 7.302 0 0 1 4.5-1.538 7.323 7.323 0 0 1 5.837 2.865l14.324 18.543 36.604-53.165a7.374 7.374 0 0 1 6.079-3.19c1.493 0 2.934.449 4.168 1.299 3.348 2.305 4.196 6.902 1.892 10.25l-38.69 56.196a12.091 12.091 0 0 1-9.599 5.213z" fill="#f9a7a7"/><circle cx="132.925" cy="183.622" fill="#f9a7a7" r="28.83"/><circle cx="132.925" cy="183.622" fill="#f9cfcf" r="17.298"/><g fill="#3762cc"><path d="M132.925 214.452c-17 0-30.83-13.83-30.83-30.83s13.83-30.831 30.83-30.831 30.83 13.831 30.83 30.831-13.83 30.83-30.83 30.83zm0-57.66c-14.794 0-26.83 12.036-26.83 26.831 0 14.794 12.036 26.83 26.83 26.83s26.83-12.036 26.83-26.83c0-14.795-12.036-26.831-26.83-26.831z"/><path d="M132.925 202.92c-10.642 0-19.299-8.657-19.299-19.298s8.657-19.298 19.299-19.298c10.641 0 19.298 8.657 19.298 19.298s-8.658 19.298-19.298 19.298zm0-34.596c-8.436 0-15.299 6.863-15.299 15.298s6.863 15.298 15.299 15.298 15.298-6.863 15.298-15.298-6.863-15.298-15.298-15.298zM177.395 250H34.498c-4.377 0-7.938-3.561-7.938-7.938s3.562-7.938 7.938-7.938h142.896c4.377 0 7.938 3.561 7.938 7.938S181.771 250 177.395 250zM34.498 238.123c-2.172 0-3.938 1.767-3.938 3.938S32.326 246 34.498 246h142.896c2.172 0 3.938-1.767 3.938-3.938s-1.767-3.938-3.938-3.938H34.498zm54.911-33.748h-9.41c-3.309 0-6-2.691-6-6v-21.63a2 2 0 0 1 2-2h13.41a2 2 0 0 1 2 2v25.63a2 2 0 0 1-2 2zm-11.41-25.629v19.63c0 1.103.897 2 2 2h7.41v-21.63z"/><path d="M89.41 178.745H13.938c-4.377 0-7.938-3.561-7.938-7.938s3.562-7.938 7.938-7.938H89.41a2 2 0 0 1 2 2v11.877a2 2 0 0 1-2 1.999zm-2-11.877H13.938A3.942 3.942 0 0 0 10 170.806a3.942 3.942 0 0 0 3.938 3.938H87.41z"/></g></svg>