<svg xmlns="http://www.w3.org/2000/svg" viewBox="0 0 512 512"><path d="M199.674 158.099c-33.402 0-60.48 27.078-60.48 60.48v23.94c0 33.402 27.078 60.48 60.48 60.48s60.48-27.078 60.48-60.48v-23.94c0-33.403-27.078-60.48-60.48-60.48z" fill="#FFCDAC"/><path d="M265.991 10.008H158.02c-11.059 0-20.024 8.965-20.024 20.024v177.994c0-11.059 8.965-20.024 20.024-20.024h107.971V10.008z" fill="#FFEFD5"/><path d="M10 10.008h107.971c11.059 0 20.024 8.965 20.024 20.024v177.994c0-11.059-8.965-20.024-20.024-20.024H10V10.008z" fill="#FFFFFF"/><path d="M246.667 302.998h-93.672c-49.151 0-88.997 39.846-88.997 88.997v109.996h271.666V391.995c0-49.151-39.846-88.997-88.997-88.997z" fill="#FFB954"/><path d="M468.001 323.998H252.009c-18.777 0-33.999 15.221-33.999 33.999v143.995H502V357.997c0-18.777-15.221-33.999-33.999-33.999z" fill="#C9F3FF"/><circle cx="360.008" cy="409.997" r="27.999" fill="#72D8FF"/><path d="M199.674 158.099c-33.402 0-60.48 27.078-60.48 60.48v23.94c0 33.402 27.078 60.48 60.48 60.48s60.48-27.078 60.48-60.48v-23.94c0-33.403-27.078-60.48-60.48-60.48z" fill="#FFFFFF"/><path d="M483.009 64.006H374.996c-10.489 0-18.991 8.503-18.991 18.991v98.862l-26.143 26.143 26.143 26.143v10.865c0 10.489 8.503 18.991 18.991 18.991h108.013c10.489 0 18.991-8.503 18.991-18.991V82.998c0-10.489-8.502-18.992-18.991-18.992z" fill="#A0E557"/><path d="M360.005 371.996c-20.952 0-37.999 17.046-37.999 37.999s17.046 37.999 37.999 37.999c20.952 0 37.999-17.046 37.999-37.999s-17.047-37.999-37.999-37.999zm0 55.998c-9.925 0-17.999-8.075-17.999-17.999s8.075-17.999 17.999-17.999c9.925 0 17.999 8.075 17.999 17.999s-8.075 17.999-17.999 17.999z"/><path d="M468.001 313.998H252.009c-24.261 0-43.999 19.737-43.999 43.999v133.996h-70.015v-53.998c0-5.522-4.478-10-10-10s-10 4.478-10 10v53.998H73.998v-99.997c0-43.56 35.438-78.997 78.997-78.997 5.522 0 10-4.478 10-10 0-.112-.013-.221-.017-.333a70.05 70.05 0 0 0 36.697 10.333c38.863 0 70.48-31.617 70.48-70.48v-23.94c0-38.863-31.617-70.479-70.48-70.479-38.862 0-70.479 31.617-70.479 70.479v23.94c0 19.794 8.214 37.697 21.397 50.51-53.482 1.281-96.595 45.183-96.595 98.967v109.996c0 5.522 4.478 10 10 10H502c5.522 0 10-4.478 10-10V357.997c0-24.261-19.738-43.999-43.999-43.999zm-318.807-71.48v-23.94c0-27.834 22.645-50.479 50.479-50.479s50.48 22.645 50.48 50.479v23.94c0 27.834-22.645 50.48-50.48 50.48s-50.479-22.644-50.479-50.48zm186.47 249.474H228.009V357.997c0-13.233 10.767-23.999 23.999-23.999h215.993c13.233 0 23.999 10.767 23.999 23.999v93.935h-46.749c-5.522 0-10 4.478-10 10s4.478 10 10 10H492v20.062l-156.336-.002z"/><path d="M405.517 451.943a10.068 10.068 0 0 0-7.07 2.93 10.074 10.074 0 0 0-2.93 7.07c0 2.63 1.069 5.21 2.93 7.069a10.073 10.073 0 0 0 7.07 2.931c2.64 0 5.21-1.07 7.069-2.931a10.03 10.03 0 0 0 2.931-7.069c0-2.631-1.061-5.21-2.931-7.07a10.057 10.057 0 0 0-7.069-2.93zm77.492-397.936H374.997c-15.985 0-28.991 13.005-28.991 28.991v94.72l-23.214 23.213c-3.905 3.905-3.905 10.237 0 14.143l23.214 23.213v6.723c0 15.985 13.006 28.991 28.991 28.991H483.01c15.984 0 28.99-13.006 28.99-28.991V82.998c0-15.986-13.006-28.991-28.991-28.991zm8.992 191.002c0 4.958-4.033 8.992-8.991 8.992H374.997c-4.958 0-8.992-4.034-8.992-8.992v-10.865c0-2.652-1.054-5.196-2.929-7.071l-19.071-19.071 19.071-19.071a10.001 10.001 0 0 0 2.929-7.071V82.998c0-4.958 4.034-8.992 8.992-8.992H483.01c4.958 0 8.991 4.034 8.991 8.992v162.011zm-226.01-112.005c-2.63 0-5.21 1.07-7.07 2.93-1.86 1.86-2.93 4.44-2.93 7.07s1.069 5.21 2.93 7.07 4.44 2.93 7.07 2.93 5.21-1.07 7.069-2.93c1.86-1.86 2.931-4.44 2.931-7.07s-1.07-5.21-2.931-7.07a10.072 10.072 0 0 0-7.069-2.93zm-160.994 54.998c0-5.523-4.478-10-10-10H19.999V20.008h97.972c5.528 0 10.025 4.497 10.025 10.025V158.1c0 5.523 4.478 10 10 10s10-4.477 10-10V30.033c0-5.528 4.497-10.025 10.025-10.025h97.972v89.01c0 5.523 4.478 10 10 10s10-4.477 10-10v-99.01c0-5.523-4.478-10-10-10H158.02c-7.688 0-14.708 2.908-20.024 7.677-5.317-4.77-12.337-7.677-20.024-7.677H10c-5.522 0-10 4.477-10 10v177.994c0 5.523 4.478 10 10 10h84.997c5.522 0 10-4.477 10-10z"/><path d="M455.218 110.005h-50.323c-5.522 0-10 4.477-10 10s4.478 10 10 10h50.323c5.522 0 10-4.477 10-10s-4.477-10-10-10zm0 43.998h-50.323c-5.522 0-10 4.477-10 10s4.478 10 10 10h50.323c5.522 0 10-4.477 10-10s-4.477-10-10-10zm0 43.999h-50.323c-5.522 0-10 4.477-10 10s4.478 10 10 10h50.323c5.522 0 10-4.477 10-10s-4.477-10-10-10zM97.144 45.007H46.82c-5.522 0-10 4.477-10 10s4.478 10 10 10h50.323c5.522 0 10-4.477 10-10s-4.476-10-9.999-10zm0 43.999H46.82c-5.522 0-10 4.477-10 10s4.478 10 10 10h50.323c5.522 0 10-4.477 10-10s-4.476-10-9.999-10zm0 43.998H46.82c-5.522 0-10 4.477-10 10s4.478 10 10 10h50.323c5.522 0 10-4.477 10-10s-4.476-10-9.999-10zM225.14 45.007h-50.323c-5.522 0-10 4.477-10 10s4.478 10 10 10h50.323c5.522 0 10-4.477 10-10s-4.478-10-10-10zm0 43.999h-50.323c-5.522 0-10 4.477-10 10s4.478 10 10 10h50.323c5.522 0 10-4.477 10-10s-4.478-10-10-10z"/></svg>