<svg xmlns="http://www.w3.org/2000/svg" viewBox="0 0 512.001 512.001"><path d="M238.627 5.151c0-2.833-2.319-5.151-5.154-5.151H65.482c-2.834 0-5.154 2.318-5.154 5.151v65.741c0 2.833 2.319 5.15 5.154 5.15h60.275c2.835 0 6.796 1.637 8.804 3.637l12.389 12.347c2.008 2 5.292 2 7.3 0l12.389-12.347c2.007-2 5.969-3.637 8.804-3.637h58.029c2.835 0 5.154-2.317 5.154-5.15l.001-65.741z" fill="#48C1E1"/><path d="M81.826 70.893V5.151C81.826 2.318 84.145 0 86.98 0H65.482c-2.834 0-5.154 2.318-5.154 5.151v65.741c0 2.833 2.319 5.15 5.154 5.15H86.98c-2.835.001-5.154-2.316-5.154-5.149z" opacity="0.1"/><path d="M283.713 478.999v-45.224c-10.879-5.087-20.38-12.889-28.415-23.38-6.204-8.099-10.422-16.361-13.109-22.671.615 2.996.938 6.097.938 9.271v61.433c12.089 9.581 25.709 16.471 40.586 20.571z" fill="#C5CCD3"/><path d="M38.114 512c-2.978 0-5.393-2.407-5.393-5.374v-109.63c0-25.485 20.806-46.217 46.382-46.217h118.652c25.575 0 46.381 20.731 46.381 46.217v109.63c0 2.967-2.413 5.374-5.393 5.374H38.114z" fill="#E6E9ED"/><path d="M81.407 354.826l2.174-4.047h-4.478c-25.576 0-46.382 20.731-46.382 46.217v109.63c0 2.967 2.414 5.374 5.393 5.374h21.247c-2.978 0-5.393-2.407-5.393-5.374v-109.63c0-18.763 11.284-34.936 27.439-42.17z" opacity="0.1"/><path d="M205.508 373.54v-20.522a7.5 7.5 0 0 0-7.5-7.5 7.48 7.48 0 0 0-5.964 2.965l13.464 25.057zm-1.126 6.4l-13.874 6.445v11.972l6.224 3.212c.941.485 1.583 1.269 1.808 2.205.225.936.01 1.922-.605 2.779l-7.427 10.333v20.35a27.186 27.186 0 0 1 15 0v-58.097c-.32.322-.693.599-1.126.801z" fill="#9EA7AF"/><path d="M217.75 500.873h-6.992a7.5 7.5 0 0 1-.508-14.983v-23.663c0-6.713-5.492-12.174-12.243-12.174s-12.244 5.461-12.244 12.174v23.663a7.5 7.5 0 0 1-.507 14.983h-6.993a7.5 7.5 0 0 1-7.5-7.5v-31.146c0-14.983 12.222-27.174 27.244-27.174 15.021 0 27.243 12.19 27.243 27.174v31.146c0 4.143-3.357 7.5-7.5 7.5z" fill="#C5CCD3"/><ellipse cx="83.231" cy="478.37" rx="15.04" ry="14.988" fill="#C5CCD3"/><path d="M90.733 457.171v-34.189l-11.809-16.431c-.616-.856-.831-1.843-.606-2.777.225-.938.867-1.721 1.809-2.206l10.606-5.473v-7.675l-15-6.968v75.719c-8.753 3.09-15.042 11.426-15.042 21.203 0 12.4 10.112 22.488 22.542 22.488s22.543-10.088 22.543-22.488c0-9.776-6.29-18.112-15.043-21.203zm-7.5 28.692c-4.159 0-7.542-3.359-7.542-7.488s3.383-7.488 7.542-7.488 7.543 3.359 7.543 7.488-3.384 7.488-7.543 7.488z" fill="#9EA7AF"/><path d="M188.998 340.7c-1.291-2.401-4.532-4.361-7.291-4.453a78.966 78.966 0 0 1-23.717 8.712v116.95c.949-.115 1.872-.673 2.592-1.675l38.165-53.099c1.628-2.269.929-5.174-1.557-6.456l-12.099-6.243c-2.486-1.282-2.444-3.296.093-4.476l19.618-9.114c2.538-1.178 3.532-4.153 2.212-6.613L188.998 340.7zm-84.968-4.471h-8.678c-2.798 0-6.171 2.012-7.491 4.471l-18.018 33.533c-1.322 2.46-.327 5.436 2.21 6.613l19.619 9.114c2.538 1.18 2.58 3.193.094 4.476l-12.099 6.243c-2.487 1.282-3.187 4.188-1.556 6.456l38.162 53.099c.722 1.002 1.646 1.56 2.593 1.675V342.7a79.22 79.22 0 0 1-14.836-6.471z" fill="#FFFFFF"/><path fill="#046699" d="M118.211 349.7H158.651V512H118.211z"/><path d="M142.884 346.422a79.057 79.057 0 0 1-24.672-3.945v26.209h40.435v-23.845a79.383 79.383 0 0 1-15.763 1.581zm-79.99-80.688v-39.186H50.22c-7.444 0-13.479 6.014-13.479 13.43v29.1c0 7.417 6.035 13.431 13.479 13.431h14.424a81.33 81.33 0 0 1-1.75-16.775zm172.653-39.185h-12.675v39.186a81.32 81.32 0 0 1-1.751 16.774h14.425c7.443 0 13.478-6.014 13.478-13.431v-29.1c.001-7.415-6.034-13.429-13.477-13.429z" fill="#FFB98A"/><path d="M216.047 114.196h-71.733c-11.811 0-22.184 6.32-27.977 15.781H94.754c-18.145 0-32.861 14.839-32.861 33.143v59.974h1v-5.982c0-20.684 7.824-36.111 23.255-45.851 13.359-8.432 32.448-12.707 56.735-12.707 24.286 0 43.374 4.275 56.733 12.707 15.431 9.739 23.255 25.166 23.255 45.851v5.982h1V122.087c.002-4.357-3.501-7.891-7.824-7.891z" fill="#C6A07D"/><path d="M62.894 217.111c0-19.139 6.712-33.766 19.936-43.561v-10.43c0-18.304 14.716-33.143 32.861-33.143H94.754c-18.145 0-32.861 14.839-32.861 33.143v59.974h1v-5.983h.001z" opacity="0.1"/><path d="M132.308 158.855v-11.516c0-18.275 14.743-33.143 32.861-33.143h-20.854c-18.118 0-32.861 14.867-32.861 33.143v14.193c6.356-1.359 13.315-2.252 20.854-2.677z" opacity="0.1"/><path d="M223.873 265.734c0 45.115-36.261 81.688-80.988 81.688-44.73 0-80.991-36.572-80.991-81.688v-48.623c0-45.112 36.26-59.558 80.991-59.558 44.727 0 80.988 14.445 80.988 59.558v48.623z" fill="#FFD5B3"/><path d="M82.83 265.734v-48.623c0-41.532 30.741-57.059 70.522-59.266a190.115 190.115 0 0 0-10.468-.292c-44.73 0-80.991 14.445-80.991 59.558v48.623c0 45.115 36.26 81.688 80.991 81.688 3.55 0 7.039-.256 10.468-.702-39.781-5.183-70.522-39.45-70.522-80.986z" opacity="0.1"/><path d="M144.274 278.036h-5.317c-4.142 0-7.5-3.357-7.5-7.5s3.358-7.5 7.5-7.5h2.971v-14.411c0-4.143 3.358-7.5 7.5-7.5s7.5 3.357 7.5 7.5v16.761c0 6.975-5.676 12.65-12.654 12.65zm42.976-16.761a7.5 7.5 0 0 1-7.5-7.5v-15.04c0-4.143 3.358-7.5 7.5-7.5s7.5 3.357 7.5 7.5v15.04a7.5 7.5 0 0 1-7.5 7.5zm-86.113 0a7.5 7.5 0 0 1-7.5-7.5v-15.04c0-4.143 3.358-7.5 7.5-7.5s7.5 3.357 7.5 7.5v15.04a7.5 7.5 0 0 1-7.5 7.5z" fill="#775436"/><path d="M143.364 327.264c-15.527 0-28.16-12.588-28.16-28.061 0-2.422 1.97-4.383 4.401-4.383h47.52a4.39 4.39 0 0 1 4.4 4.383c-.001 15.473-12.632 28.061-28.161 28.061z" fill="#FB8276"/><path d="M436.143 361.681h-33.484c-8.535 3.496-17.604 5.338-26.887 5.338s-18.353-1.842-26.888-5.338h-23.095c-23.788 0-43.139 19.331-43.139 43.092V506.99a5.012 5.012 0 0 0 5.016 5.011h186.6a5.011 5.011 0 0 0 5.015-5.011V404.772c-.001-23.76-19.352-43.091-43.138-43.091z" fill="#A2DFF9"/><path d="M349.245 361.834c-.121-.049-.24-.104-.361-.153h-23.095c-23.788 0-43.139 19.331-43.139 43.092V506.99a5.012 5.012 0 0 0 5.016 5.011h26.952a5.012 5.012 0 0 1-5.016-5.011V404.772c0-22.583 17.485-41.153 39.643-42.938z" opacity="0.1"/><path d="M298.058 284.002v-15.805h-2.401c-11.486 0-20.798 9.305-20.798 20.779 0 11.478 9.311 20.778 20.798 20.778h6.526c-2.686-8.337-4.125-17.045-4.125-25.752zm157.82-15.805h-2.395v15.805c0 8.707-1.439 17.415-4.125 25.753h6.52c11.49 0 20.806-9.301 20.806-20.778.001-11.475-9.316-20.78-20.806-20.78zm-75.433 139.967l23.663-46.483h-1.45c-8.535 3.496-17.604 5.338-26.887 5.338s-18.353-1.842-26.888-5.338h-1.448l23.662 46.483c2.572 5.05 6.778 5.05 9.348 0z" fill="#FFB98A"/><path d="M355.153 149.645a75.974 75.974 0 0 1 41.235 0c6.729-6.496 11.002-16.098 11.002-26.803a3.989 3.989 0 0 0-3.989-3.987h-55.26a3.988 3.988 0 0 0-3.99 3.987c0 10.706 4.272 20.308 11.002 26.803z" fill="#89C947"/><path d="M355.153 149.645a75.906 75.906 0 0 1 18.526-2.821c-5.212-6.312-8.416-14.728-8.416-23.981a3.988 3.988 0 0 1 3.99-3.987h-21.112a3.988 3.988 0 0 0-3.99 3.987c0 10.705 4.272 20.307 11.002 26.802z" opacity="0.1"/><path d="M297.058 263.317v20.685c0 44.231 35.24 84.017 78.713 84.017 43.471 0 78.712-39.785 78.712-84.017v-20.685H297.058z" fill="#FFD5B3"/><g opacity="0.1"><path d="M318.132 284.002v-20.685h-21.074v20.685c0 44.231 35.24 84.017 78.713 84.017a70.72 70.72 0 0 0 10.537-.813c-38.488-5.787-68.176-42.61-68.176-83.204z"/></g><g><path d="M380.44 320.043h-4.725c-6.741 0-12.225-5.675-12.225-12.65v-14.666c0-4.143 3.358-7.5 7.5-7.5s7.5 3.357 7.5 7.5v12.316h1.949a7.5 7.5 0 0 1 7.5 7.5 7.499 7.499 0 0 1-7.499 7.5zm-44.928-14.366a7.5 7.5 0 0 1-7.5-7.5v-11.19a7.5 7.5 0 0 1 15 0v11.19a7.5 7.5 0 0 1-7.5 7.5zm74.131 0a7.5 7.5 0 0 1-7.5-7.5v-11.19a7.5 7.5 0 0 1 15 0v11.19a7.5 7.5 0 0 1-7.5 7.5zm-36.207 44.665c-10.213 0-20.422-3.882-28.197-11.649a7.5 7.5 0 0 1 10.601-10.612c9.702 9.692 25.489 9.693 35.192-.001a7.501 7.501 0 0 1 10.6 10.613c-7.771 7.765-17.985 11.649-28.196 11.649z" fill="#775436"/></g><path d="M294.566 230.683h162.409c1.283 0 2.523.176 3.717.474-4.938-48.348-41.07-85.875-84.921-85.875-43.852 0-79.985 37.527-84.922 85.875a15.265 15.265 0 0 1 3.717-.474z" fill="#368C0E"/><path d="M294.566 230.683h17.846c4.7-44.107 35.36-79.113 74.108-84.639a76.104 76.104 0 0 0-10.749-.763c-43.852 0-79.985 37.527-84.922 85.875a15.314 15.314 0 0 1 3.717-.473z" opacity="0.1"/><path d="M472.437 249.411c0 8.499-6.958 15.453-15.462 15.453H294.566c-8.504 0-15.461-6.954-15.461-15.453V245c0-8.499 6.957-15.453 15.461-15.453h162.409c8.504 0 15.462 6.954 15.462 15.453v4.411z" fill="#89C947"/><g opacity="0.1"><path d="M300.325 249.411V245c0-8.499 6.957-15.453 15.461-15.453h-21.22c-8.504 0-15.461 6.954-15.461 15.453v4.411c0 8.499 6.957 15.453 15.461 15.453h21.22c-8.504 0-15.461-6.954-15.461-15.453z"/></g><path d="M418.498 479.486a2.933 2.933 0 0 1-2.931-2.926v-17.897h-17.93a2.931 2.931 0 0 1-2.931-2.927v-15.145a2.93 2.93 0 0 1 2.931-2.925h17.93v-17.9a2.932 2.932 0 0 1 2.931-2.925h15.174a2.93 2.93 0 0 1 2.929 2.925v17.9h17.932a2.928 2.928 0 0 1 2.929 2.925v15.145a2.931 2.931 0 0 1-2.929 2.927h-17.932v17.897a2.932 2.932 0 0 1-2.929 2.926h-15.174z" fill="#FB8276"/><g><path d="M104.55 33.772H89.948c-4.142 0-7.5-3.357-7.5-7.5s3.358-7.5 7.5-7.5h14.602a7.5 7.5 0 0 1 7.5 7.5 7.5 7.5 0 0 1-7.5 7.5zm102.21 0h-80.524c-4.142 0-7.5-3.357-7.5-7.5s3.358-7.5 7.5-7.5h80.524c4.142 0 7.5 3.357 7.5 7.5s-3.358 7.5-7.5 7.5zm-36.288 23.503H89.948c-4.142 0-7.5-3.357-7.5-7.5s3.358-7.5 7.5-7.5h80.524c4.142 0 7.5 3.357 7.5 7.5s-3.358 7.5-7.5 7.5z" fill="#A2DFF9"/></g><path d="M104.03 336.229h-8.678c-2.798 0-6.171 2.012-7.491 4.471l-18.018 33.533c-1.322 2.46-.327 5.436 2.21 6.613l19.619 9.114c2.538 1.18 2.58 3.193.094 4.476l-12.099 6.243c-2.487 1.282-3.187 4.188-1.556 6.456l38.162 53.099c.722 1.002 1.646 1.56 2.593 1.675V342.7a79.22 79.22 0 0 1-14.836-6.471z" fill="#FFFFFF"/></svg>